<svg width="336" height="120" viewBox="0 0 336 120" fill="none" xmlns="http://www.w3.org/2000/svg">
<path d="M108.401 93.6464H89.5056V118.011H63.3177V93.6464H0.831543V75.5801L55.5277 1.98894H83.7045L32.9862 71.7679H64.1465V50.0552H89.5056V71.7679H108.401V93.6464Z" fill="#0E1A29" fill-opacity="0.05"/>
<path d="M166.155 120C156.542 120 147.978 117.624 140.465 112.873C132.951 108.122 127.039 101.271 122.73 92.3204C118.531 83.2597 116.431 72.4862 116.431 60C116.431 47.5138 118.531 36.7956 122.73 27.8453C127.039 18.7845 132.951 11.8784 140.465 7.12707C147.978 2.37569 156.542 0 166.155 0C175.769 0 184.332 2.37569 191.846 7.12707C199.36 11.8784 205.216 18.7845 209.415 27.8453C213.724 36.7956 215.879 47.5138 215.879 60C215.879 72.4862 213.724 83.2597 209.415 92.3204C205.216 101.271 199.36 108.122 191.846 112.873C184.332 117.624 175.769 120 166.155 120ZM166.155 97.2928C173.227 97.2928 178.752 94.2541 182.73 88.1768C186.818 82.0994 188.862 72.7072 188.862 60C188.862 47.2928 186.818 37.9005 182.73 31.8232C178.752 25.7458 173.227 22.7072 166.155 22.7072C159.194 22.7072 153.669 25.7458 149.581 31.8232C145.603 37.9005 143.614 47.2928 143.614 60C143.614 72.7072 145.603 82.0994 149.581 88.1768C153.669 94.2541 159.194 97.2928 166.155 97.2928Z" fill="#0E1A29" fill-opacity="0.05"/>
<path d="M335.168 93.6464H316.273V118.011H290.085V93.6464H227.599V75.5801L282.295 1.98894H310.472L259.754 71.7679H290.914V50.0552H316.273V71.7679H335.168V93.6464Z" fill="#0E1A29" fill-opacity="0.05"/>
</svg>
